<svg width="1024" height="1024" viewBox="0 0 1024 1024" fill="none" xmlns="http://www.w3.org/2000/svg">
<g clip-path="url(#clip0_1460_7655)">
<rect width="1024" height="1024" fill="url(#paint0_linear_1460_7655)"/>
<path fill-rule="evenodd" clip-rule="evenodd" d="M578.411 810.71C563.057 813.266 545.145 815.821 529.791 815.821C514.438 815.821 496.525 813.266 481.171 810.71V493.778C496.525 496.334 514.438 496.334 529.791 496.334C545.145 496.334 563.057 496.334 578.411 493.778V810.71Z" fill="white"/>
<path fill-rule="evenodd" clip-rule="evenodd" d="M834.304 365.983V227.964H698.68L737.064 266.302C691.004 317.42 632.148 353.203 563.057 371.094C537.468 378.762 509.319 381.318 481.171 381.318C470.935 381.318 460.7 381.318 450.464 378.762C345.547 371.094 253.426 312.309 194.57 227.964C230.395 314.865 296.928 383.874 381.373 422.212C424.874 442.66 473.494 452.883 522.114 452.883C573.293 452.883 619.353 442.66 662.855 422.212C711.475 399.209 757.536 365.983 790.802 325.088L821.509 355.759L834.304 365.983ZM529.791 227.964C560.498 227.964 586.087 253.523 586.087 284.194C586.087 314.865 560.498 340.424 529.791 340.424C499.084 340.424 473.494 314.865 473.494 284.194C473.494 253.523 499.084 227.964 529.791 227.964Z" fill="white"/>
<path opacity="0.5" fill-rule="evenodd" clip-rule="evenodd" d="M422.312 491.223V803.043C381.369 785.151 348.103 757.037 322.514 726.366V452.884C353.221 468.22 386.487 480.999 422.312 491.223Z" fill="url(#paint1_linear_1460_7655)"/>
<path opacity="0.5" fill-rule="evenodd" clip-rule="evenodd" d="M721.708 723.81C696.119 757.037 662.853 785.151 621.91 800.487V491.223C657.735 483.555 691.001 468.22 721.708 452.884V723.81Z" fill="url(#paint2_linear_1460_7655)"/>
</g>
<defs>
<linearGradient id="paint0_linear_1460_7655" x1="512" y1="0" x2="512" y2="1024" gradientUnits="userSpaceOnUse">
<stop stop-color="#007BFF"/>
<stop offset="1" stop-color="#0062CC"/>
</linearGradient>
<linearGradient id="paint1_linear_1460_7655" x1="372.27" y1="452.291" x2="372.27" y2="822.181" gradientUnits="userSpaceOnUse">
<stop offset="0.00110853" stop-color="white"/>
<stop offset="1" stop-color="white" stop-opacity="0.01"/>
</linearGradient>
<linearGradient id="paint2_linear_1460_7655" x1="670.816" y1="452.291" x2="670.816" y2="822.181" gradientUnits="userSpaceOnUse">
<stop offset="0.00110853" stop-color="white"/>
<stop offset="1" stop-color="white" stop-opacity="0.01"/>
</linearGradient>
<clipPath id="clip0_1460_7655">
<rect width="1024" height="1024" fill="white"/>
</clipPath>
</defs>
</svg>
